<svg width="400pt" height="400pt" viewBox="0 0 400 400" xmlns="http://www.w3.org/2000/svg"><g fill="#0"><path d="M197 38c3-2 6-1 8-1v2h1v-2h7v2h-3l-1 1h-11c-4 2-9 5-11 9-1 2 0 4 1 6l-3-1-1-2 2-2-1-1-7 9 1 1-4 7c-1 2-4 5-3 8-2 0-1 2-1 3l-2 2 1 2h-1c-2 3-3 6-6 8v-1l2-3 4-13c5-11 11-22 20-30 2 2 2-2 4-2l2-2c-1 3 1 1 2 0m-11 8c1 1 1 1 0 0zM221 38l11 8c6 7 9 16 13 25l5 16c8 3 17 4 24 8l9 3 6 1c4 1 8 0 12 2l-1 1h-9l-15-4v2l-1 1h4l-4 3 1 4c-3-1-2-4-3-6v14l-2 1-1-6-4 2 3-3c-4-4-8-8-9-13l4 2-1-2h7c1 2-1 3-2 5l-2-4v3l-2-1c2 3 4 6 7 6v-2l-3 1 3-4v-3l3 2-3-3-11-6-1 3v-3c-1 2 0 5-3 6v-6h-4l-2-2v2l-2-2-1 4 3 2 1 2h-2l-4-2h2l-1-4-3 1-1-4 5 1 1-2-2 1c-1-3-2-7 0-10l-2 1-1-10h-2l1-3h-2v-5c-4-1-2-6-6-7l1-2-5-4h1l-6-4-1 2c0-2-1-4-3-5v-3zM211 71l1 11c-3-3 0-7-1-11zM176 78c2-1 2 0 3 1-2 1-2 0-3-1zM232 80c2 0 2 3 1 4-1-1-2-3-1-4zM354 82h16v2l-3-1-7 1-6-2zM351 84c1-1 4-1 4 1-1 0-4 1-4-1zM342 85l3 2c-1 1-4 0-3-2zM346 86c0-2 3-2 3 0h-3zM338 88c0-2 2-2 3 0l-10 3v-2l1-1 1 2v-1h2l2-3v2h1zM186 87l-1 7-1 3 2-1 5 4c0-2 2-2 4-2l-4 4v2l-5-4 1 3-2-1v-5l-1 1h-1l1-2-8 2c2-3 2-6 2-9 1 2 1 7 4 6v-3l4-5zM347 88c2 1 0 5-2 4l2-4zM165 89c3 1-2 3 0 0zM239 89l3 2c-1 2-4 0-3-2zM236 92c0-3 3-1 2 1l-2-1zM327 91l4-1-1 2-11 6v-3l8-4zM234 91l2 1 1 5 2-2 1 6-2-1v4c-1-2-1-5-4-3h-1c2-2 4-3 3-5-4 1-7 4-12 4l1-3c4 1 7-1 10-3l-1-3zM54 93h15l16 4 19 9 13 1c5 0 10-3 14-6l4-2v5l-2-2-5 4-2 3h-2c-3-1-7-2-9 0-3 1-5-1-8-1l2 2h-3c-3 0-6-2-8-3v-2c-4-1-7-5-11-4a911 911 0 01-5-2c-1-2-3-1-5-2v-1l-2 2-16-2c-5 0-11 1-14 5 0-2-1-2-2-1 2 3 1 7 0 10h2l-1 2c3 0 5 4 4 7 3 0 4 3 5 4 3 6 8 11 13 16v3l3-2-8-7c6 0 7 6 12 8v3c-1-2-3-3-5-2l1 2v5c-3-1-3-4-5-6l-4-9c-2 0-4-2-5-3l-9-12-4-10 1-7-2 4c-1-4 0-8 3-10 2-2 6-3 9-2v1h1v-2m17 2c0 1 0 1 0 0m-24 1c1 1 1 1 0 0zM166 92c1 1 1 1 0 0z"/><path d="M252 93l2-2 1 4h-3v-2zM137 98l13-5h2c-2 2-4 3-7 2l-6 4 1 3h-4l2-3-1-1zM345 93c2-1 4 1 3 3l-3-3zM154 108c0-4 1-7 3-10l1 1-1 3c2 0 3-1 3-2v2l-3 2 1 3-2 2v-2l-2 1zM150 102l2-1 1 2-2 6-1-1v-6zM169 104c1 0 4-2 4 0 1 3-3 2-4 0zM138 104c2 1 0 3-1 2-2 0 0-2 1-2zM238 104c2 1 1 2 1 3l-1-2v-1zM240 104c3 1-1 3 0 0zM281 105h7l2-1 4 1 1 3-3-1h-3v1l-4-1c-1 0-3 0-4-2zM317 105l6-1v4l-4-2-4 6-5 2 4 4-2 1c-3-2-6-7-2-10l4-4c0 3-1 4-2 5h-2l-1 4 6-3 2-6zM191 105l2 1-1 18-2-2-1 3c-2 0-4-1-4-3h4l1-3h-3l2-2 1-1v-7l1-4zM137 109l4-2 1 4-2-2v3l-2 2 1-4-3 1 1 2v2l1 2c-2 2-5 1-7-2l3-4h-7l2-3 8 1zM172 111c-1 0-2-2 0-3v3zM96 110l2 2c-2 0-2 0-2-2zM99 110l2 2c-2 0-2 0-2-2zM124 110c3 0 2 4-1 3l1-3zM207 112l-1 6c-3-1-5-2-6 0l3-4v3l4-5zM170 113h3l1 3 6-1v1l-3 1v3l-3-1-1-2-2-1-1-3zM148 116c0-2 2-2 3-2v5c-1-1-1-3-3-3zM239 121c1-3 0-6 2-8v6c3 0 4 2 4 4l-2-3-4 1z"/><path d="M242 114c2 0 1 3 1 4-2-1-2-3-1-4zM313 114c1-1 2 0 3 1-2 1-3 0-3-1zM317 115c2-1 4 1 3 2s-4-1-3-2zM152 118l1-3 3 3-1 1c2 2 5 3 8 3l-7-4c4 0 7 1 9 4v1l1 2 1 1h-2-2v4l-2-4c-3-2-4-5-8-6 2 3 5 6 4 9-2 0-2-2-3-3v1a80 80 0 00-2-9zM207 116c1 1 2 1 1 3-1-1-2-1-1-3zM334 117c1-1 3 0 4 1-1 2-4 1-4-1zM315 118l7 1c1 0 4 0 3 2h-3v3l-3-3c-2 0-3-1-4-3zM233 120l2-1h1l2 5-2-2-4 2a485 485 0 010-4h1zM74 128c2-2 5-4 6-7l-1 5 4-1v3l-6-2c-1 2-1 4-3 4l-2-1c-2-2-6-2-8-5l9 2 1 2zM181 121c3 1-1 4 0 0zM170 122c3 1-1 4 0 0zM182 130l1-6v2l2-1v4l-2 1h-1zM241 128c-1-2 0-2 1-3 1 2 1 2-1 3zM249 125c1 1 2 1 1 3-2-1-2-1-1-3zM146 126l2 7v6l2-2v-3h1v-2l2 1 3-1v5l-1-2h-3v4l-5 2 4 11c1 2-1 3-2 4l-1-2 2-2c-3-2-2-6-3-9l-2 2-2-4 1-6 3 5v-6l-2-1 1-1-2-3 2-3zM201 127l2-1c0 2 0 5 2 5h4l-2 3c-2 0-4-3-6-4l-4 1 4-4zM239 126c3 0-1 3 0 0zM167 127c3 0-1 3 0 0zM126 128c3 0-1 3 0 0zM74 131c3-1 0 3 0 0zM174 131c1 1 2 1 1 3-1-1-2-2-1-3zM337 132l4 2 1-1 1 6 2 2 1-2c1 5-3 9-6 12 0 2 0 4-2 5l-2 1 3-6-2-3-2 6-4 1v-3l-3 2 4-6-1 3 2 1c1 1 3 0 2-2l1-12h4l-3-6m1 8l-1 6 2 2c2-1 4-3 5-6l-2 1v-3h-4zM248 133l1 5h-2l1-5zM234 134c2 0 2 0 2 2-2 0-2 0-2-2zM167 136c2 1 3 3 5 2v4c0-2-2-3-4-3l1 5-4-3v-2h2v-3zM185 145l6-8-3 4 1 1c-3 0-2 4 0 2 1 0 2-1 1-2h3l-3 4-2-1c-4 1-2 5-2 8-5 1-8 4-12 7l5-4-3-3h2c0-2 0-6 3-6-1 2-3 4-2 6h4c2-2 1-5 2-8zM277 138c2 0 1 4 0 4v-4z"/><path d="M339 142c2-1 2 2 2 3-2 0-3-3-2-3zM120 142l-1 1 1-1zM193 144c3-2 7-2 10-2-4 1-7 1-10 4l7 1-6 2v1l2 1-7 4v-2l1-5v1l1 4 2-4v-5zM99 143c3-2 1 3 0 0zM117 143c1 1 1 1 0 0zM248 146c2-1 3 2 2 3s-3-2-2-3zM266 145l1 7c-2-1-1-5-1-7zM74 146c3 2 3 5 4 8l6 7 2 6-1 3c-2-2-1-4-2-6l-3-3-3-4 1 3h-2c4 3 7 8 5 12h1l1 5-3-4c-1-3-1-7-3-10s-6-5-7-9l5 4v-5l-1-2-1-3 1-2zM285 146c3 0-1 3 0 0zM172 146l4 2v3l-3-1-3 5 4-3 1 3h-5l-1 1-4 1c0 2 2 4 1 6-4-3-1-9 1-12l1 4c2-2 3-6 4-9zM318 148l1-1 1 4h-3l1-3zM182 148c2 1 2 1 1 3-1-1-2-1-1-3zM253 148l9 3 1 2c-3-4-9-1-10-5zM244 153c3-2 7-1 10 0l1 4c-3-3-7-5-11-4zM100 153l-2-1 1-1 2 2h-1zM317 157c-2-1 0-4 2-3 0 1 0 4-2 3zM262 159l1-4 2 4h-3zM149 160c1-2 2-4 4-4l-2 5c3 2 0 7 2 10l1-4c2 2 3 4 2 7 0 4 5 7 5 11l-3-1-1-4-2 3 4 11c2 3 0 7 0 11l-2 1 2-10-2-1c0 2-1 4-3 4l1-2c0-2-1-4 1-5l-2-7c0-2 0-5-2-6l-2 1-1-6h2v4l4 1c-1-2-2-3-1-5l-5-3v-11z"/><path d="M170 156c1 0 3-1 4 1-1 2-5 1-4-1zM92 158h1l3 4c-3 3-7-1-8-3l5 2-1-3zM132 164l3-5 1 4-2 4-2-3zM260 160c3 0-1 3 0 0zM314 166c0-2 2-4 4-5l-2 4h4v-3l2-1c1 2-2 5 1 6-3 0-6 1-9-1zM87 162c1-1 3 1 3 2-1 1-3-1-3-2zM180 162c3-1 0 3 0 0zM268 162c3 0 2 6 0 7l1-4-1-3zM143 171c-2-1-2-5 0-7v7zM273 177c0-5-1-9 1-13-1 2 0 4 1 5l-1 7-1 1zM89 169c2-1 3-4 6-4-2 3-3 7-7 8l2-2-1-2zM102 165l3 1v2l4 1c1 3 0 6-2 7l-3 1 1-2-3-1v-9z"/><path d="M106 166c2-1 2 0 3 1-2 1-2 0-3-1zM306 166l8 2v2l-4-2c-4 2-7 0-11 1l8-1-1-2zM160 171c-3-1-2-3 0-5l2 7v-6l2-1c1 4-1 11 4 13l-1 3-1-3c-2-2-4-2-7-3l1-5zM262 167c2 1 1 3 0 4-2 0-1-4 0-4zM335 166c2 5 1 10 1 15 1 6-1 11-1 17l-8 22c-2 5-6 9-9 13-2 4-6 5-8 8s-3 6-6 8c-2 1-5 2-5 5l-2 3 2 2c-1 3-2 6-4 7 0-2-2-7 2-6l-4-5 1 2h-4l3 7c-3-2-4-4-5-7 2-2 5-3 5-6l1 2 8-8 3-1h-2l4-2 1-3 3-1 5-6v-1l1-2 2 1 7-12v-8l-4 2 4-4 1 2 2-1-1-2 3-1-1-3 1-3a141 141 0 01-1-1l2-1v-8l2 1-1-7 2 1v-11l-2 2 2-10zM290 171l7-3v1l-7 5v-3z"/><path d="M332 169c1 1 2 1 1 3-1-1-2-1-1-3zM310 171l1 1h1c1 0 2 2 1 3l-2-1 1 3-2 5v-8l-3-1 3-2zM317 171c3 0 4 3 5 5l7 2v3l3-2-2 7c-1 1-3 4-4 2l-3 1-1 3 1 4c-2-2-2-8 2-9l-5-3-1-2h-2l2-2c1 2 1 4 3 4l6 1-1-6-7-1-2-5-1-2zM216 175v-2 2zM258 175c1 1 2 1 1 3-2-1-2-1-1-3zM271 176c2 1 0 4-2 4l2-4zM83 180l3-3-2 9v1l-1-7zM182 177l1 1-1 3 5 5 2 4-3 5c-2-2 1-6-3-7l1 7c-4-3-1-9-4-14l2-4m0 7c-1 2-1 2 1 3 1-2 0-2-1-3zM230 178h7l-1 1h-8l2-1zM116 178h5c2 1 4 3 4 5l-5-1-2-1-2-3zM189 179l1-1h8l-4 2 3 1-1 5-2-1-4 2 1-3h5l-4-3h1l-4-2zM114 179c1 1 1 1 0 0zM213 179h2v6l-2 1v10l-1 3v-14l1-6zM256 179c4 1-2 3 0 0zM112 180c1 1 1 1 0 0zM333 180c2 0 1 5 0 2v-2zM101 182h4v3l-4-1v-2zM274 185c-1-2 0-2 1-3 1 1 0 2-1 3zM93 186l1 1-1 7c1-3 2-3 4-2l-2 2h3l-2 4v11h-8v-4l6 2 1-10c-2-2-4-5-7-6v10l-1 4c-1-2 0-7-3-5-1 3-1 7 3 8v7l4 4c1 3 1 6 3 8l4 7 2 4-6-5-9-21-3-15v-3l1 6c3-1 3-5 3-7l1-2 3 1 3-6zM103 192l5-6v8c1 1 2 3 1 5 3 1 6 2 7 4l-7-2-2-4v-6l-4 1zM307 189c1-1 3 1 3 2-1 1-3-1-3-2zM275 194c-1-1-1-4 1-4l-1 4zM168 192l3-1 8 6 1 8c2 0 2-3 2-4v8l-2 4c-1 2-3 3-6 4l2-7c2 1 3-1 4-2v-3l-3 3 1-9-10-7m9 19c0 2 0 2 2 2 0-2 0-2-2-2zM268 203c-3-1-5-5-2-7-1 3 1 4 3 6l-1 1zM187 199c2 0 3 2 3 4l-3-4zM252 199h4v4l-2-1c-1 3 1 6 4 7l4 4c-4 0-7-3-9-6l-1-8zM288 201c1 0 3 2 2 3-1 0-3-2-2-3zM240 202c1 1 2 1 1 3-2-1-2-1-1-3zM303 202h4c0 3-7 3-4 0zM108 203l1 2 8 2 9-1-4 3 2 3h2c0 2 4 2 3-1l2 3a405 405 0 01-5 0c-1 3 4 2 5 5l6-1-3-4 3 4 5-1 1 4-2-3v3l-1-3-5 2 2 2-6-3-2-1-4-2v-3l-4 1c1-1 3-4 0-3-4 0-8-3-12-4l-1-4zM166 205c2 0 1 3 0 3v-3zM268 206c2 1 2 5 0 6v-6z"/><path d="M160 219c1-4 0-9 3-12 0 3 1 5 3 7v11c4-1 6 4 6 7l1-1c-1-3-4-5-4-9 3 0 3 4 6 5l1-4c0 3-2 7 1 9 1 2 0 3-1 4l3 2-1-5 3 2c1 2 0 5 3 6 6 1 12-1 18-2v3l-2-1-12 3c-3-1-8-1-9-5v4l2 2c-5 0-3-7-9-7 0 3 1 4 3 6l-5-3c0-3-1-6-3-8-4 0-8-2-9-6l4 2v-3l-5-1 1-2h4l-2-4zM250 207h2v5c-1 1 0 5-3 4v-2a3172 3172 0 011-4h-4c1 4 1 8 5 10l4 5 1 7h4l-3 1-1 3v3l-9 3-3-2-5 1 4-2 5-2 1 2h4c1-2 2-5 1-8-1-2-1-4-3-4v4l-2-1c0-2 0-4 2-4l-1-6c-4-1-5-4-5-7l-2-1c1-2 3-3 6-3l1-2m1 16c1 3 3-2 0 0zM299 207c3-2 0 3 0 0zM232 208c2 1 2 1 1 3-1-1-2-1-1-3zM107 212c1 0 4-1 4 1-1 1-4 1-4-1zM187 213v2-2zM235 214c3-2 0 3 0 0zM267 214c2-1 3 1 3 2-1 4-3 0-3-2zM92 215l7 2c-1 2-3 2-5 2l2 3c-3-1-4-4-4-7zM205 220l2-4 3 3h-2v3l-3-2zM276 221c3 1-2 3 0 0zM158 226c1 1 1 1 0 0zM267 227c1 1 2 1 1 3-2-1-2-1-1-3zM147 233l4-4c0 2-2 6-4 4zM207 230c3 1-2 5-3 3l3-3zM283 233c2-1 4 0 4 2l-4-2z"/><path d="M243 234l2 2c-2 0-2 0-2-2zM145 240c1-3 4-3 7-3-2 1-4 4-7 3zM193 237c1 0 4-1 4 1-1 1-4 1-4-1zM167 238c2 0 1 3 1 4-2 0-2-3-1-4zM233 238c2-1 2 0 3 1-2 1-2 0-3-1zM101 239l5 3-1 2-4-4v-1zM294 239c2 0 2 0 2 2l-2-2zM163 240c2 0 1 4 0 4v-4zM278 240l4 1c0 2 0 3-2 3 1-2 0-3-2-4zM284 243c1-1 4 0 2 2 0 1-3 0-2-2zM141 245v2-2zM253 248l3-3 2 3 3-2 1 3h-4c-2 2-4 2-7 2v-2c2 1 4 1 5-1h-3zM134 249c0-2 1-3 3-3l-3 3zM191 247c2-1 2-1 3 1-2 1-2 0-3-1zM146 248l2 1 2 4c1 0 3 0 4-2l11 2v-3c4 2 8 3 11 6-4 0-7-2-10-1-2 4 6 1 6 4-2 1-4 0-6-1-2 0-1-2-2-3-5 1-9-1-14-1-2-1-3-4-4-6zM267 249l3 1h1l-4 1v1l2 1-1 4c0-2-1-3-2-3v4c-2-3-5-1-5 1l3 1-4 4 1-3-1-4c1-2 1-5 3-7l1 3 3-4zM186 251c2 1 4 2 4 4l-4-4zM245 254c3-3 6-1 9 0h-9zM116 253l10 2-3 2 10 5 1 6c-1-1-1-3-3-3l-4 4-1-2-1 3h-2 3l-3 4c-2-1-3 1-4 2h2l-2 3-2 2h-1c2-1-1-4 1-6l10-11c0-2-3-3-4-4l2-1h-2v-3l-3 1 2-2c-2 0-4 0-6-2m12 11c1 1 1 1 0 0zM294 269c-1-2 0-2 1-3 1 2 1 2-1 3zM294 274l3 5-4 1 1-6zM293 281l1 1c-1 5-4 8-6 13l-2 2-10 9c0 1 0 2-2 3l-2-2-1 4-6 3-2-2c1-2 3-2 6-3l4-6 6-3 4-3v-3l3-1 1-6 6-6zM214 289l1-5v20l-1-1c0-4 1-9-1-13l-2 2c-1-2 0-3 1-5l1 2h1zM127 291l2 5-2 3v-3l-2 2-1-2 3-1v-4zM130 300c2 0 2 0 2 2-2 0-2 0-2-2zM132 303c4-1 5 1 7 3l2 1 3 3v-3l3 3-2 1-1 3c0-3-2-5-4-7l-1 5-5-7-2-2zM254 314l7 2c-2 1-5 0-7 2v-1-3zM199 321v-5l3 7h-1l-2-2zM216 320l1 5 5 1-1 2 3-1v1h4v3c-5-1-10 1-15-2h1c3-2 2-6 2-9m2 6c-2 3 3 1 0 0zM161 323h1c2 0-1 2-1 0zM243 324h4l-1 2-4 1-3 1-1-2 5-2z"/></g><g fill="#0"><path d="M209 40l1-1h3c0 9-1 18 1 27v32l-1-1-1-8h-2v-1l2 1v-7l-1-11V60c-2 5 0 10-2 15-1 1-2 3-1 5l-7-3-5 5h-7l-3-1h-2l-2-2 5 3 1-4v3l8 1 4-3-1-3 7 2 1-2c3-1 1-5 2-8l-4 1 4-2V49h2l-1-6-2 1 1-4zM221 41c2 1 3 3 3 5v10h4l1-4-1 4h2l-6 1v5l1 5-1 4h1l1 8 5 1-5-1-1 5h5-2l-1 3-2-2v12l-1 3v3c-1-9 0-18-2-27l-1-24V41zM185 49l1 1-2 2c-2 2-3 6-4 10l-3 1-1 4c-4 4-4 10 0 15l-2 4-2-4h3l-3-4-1 5-1-2-1-2 2-2c0-1-1-3 1-3-1-3 2-6 3-8l4-7-1-1 7-9zM163 89c3-2 4-5 6-8 1 2 0 3-1 5v11h6l-1-3 2 4-8-1v2h1v8l2 6 1 3 1 6 2-1-2 1 3 3-2-1-1 5v-5l-2 5c0-2 1-5-2-6l-2 1v1l-1-2a123 123 0 001-4c-2-1-4-3-5-6l-1 2h-7l-1 3-1-6 3-4 2-1v2l-2 6h6l1-3-3-5-1-3 3-2a56 56 0 011-3h-3l-1-1c-1-2-1-3-3-3l-1 8-1-2-2 1v6c-2 2-4 4-4 7 1 3 2 7 5 8 2 2 1 5 1 7l-2-4v11l-2 2v-6l-2-7-2-11-6 2-1-2v-2l-1-2 3-1-1 4 2-2v-3l2 2v3l2 1 3-9 1-4 5-8 2-1a175 175 0 006-3l-3 4 4-2c1 3-4 3-4 6h4v-3l2 1-2 6 1 1 2-7-3-4 1-3m2 0c-2 3 3 1 0 0m1 3c1 1 1 1 0 0m-9 1c1 1 1 1 0 0m8 9c-1 0-2 3 0 3s2-3 0-3m-4 8c2-1 1-4 1-6-3 1-2 4-1 6m3-4c1 2 1 6-1 7l3 6 1 2h1v-4h1l-1-5-1 4-1-5 2 1-2-4 1-2h-3m5 12v2c1 3 2-3 0-2m1 4c-1 4 3 1 0 0zM367 83a7429 7429 0 014 1l2 1v2h2l-1 1c2 1 1 3 1 4 0 3-1 5-3 7l-1 5-3 1 1 2-4 5-3 5c-2 2-3 6-7 7l1 2-1-1a145 145 0 01-3 5l-4 5-1 3-1 1-1 2 1-7h-3v5l-1-6v-1c6 1 9-4 12-8l4-4-3 1c1-2 2-4 4-3 1-3 4-5 4-9l1 1 1-2 8-13c1-3 1-7-1-10l-5-2z"/><path d="M173 87c2 0-1 4-1 1l1-1zM247 93l1-4 2 2 2 1v3h3v4l-2-1-2 3v-4l-1-2-3-2zM192 94c3 0 7-2 7 2 2 1 5 1 5 3l-5-2-1-3-6 1v-1zM71 95c0 1 0 1 0 0zM176 98l8-2-1 2v4c2-1 1-3 1-4l1-1v5l-1 8-1 6v8a33 33 0 00-1 11c-2-2-1-6-2-8l-1 11h-1v-6l-2 3 1-5 2 3-1-10-2 2v-2c3-1 3-5 4-7v-1-6l2-13-4 3-2-1m7 11v-5c-2 1-2 5 0 5m-2 9c2-1 1-4 1-6l-1 6m0 3c-1 4 3 1 0 0zM313 98c2-1 4 0 4-2v2h-2l-1 2h-2l-4 2-4 4-3 1-2-2-3 2-2-2-4-1h7l8-1-2-1c4 0 7-1 10-4zM77 97c2 1 4 0 5 2l2-1 3 3c4-1 7 3 11 4l-2 1-6-4v-1l-2 1-12-4 1-1zM143 98c2-2 4-1 6-1-1 2-3 1-4 1h-2zM67 100l7-1-3 1 3 3-3-1-4-2zM276 98l15 4h-9l8 2-2 1h-7l-2-1 2-2-5-2v-2zM77 100c1 2 1 4 4 4v-2a536 536 0 017 3v1l6 2-1 1c-3 0-5-3-9-3l-2-2h-3l1 2c-1-2-2-3-4-3l1-3zM254 101h4l2 3 5 4 1 4-2-2c-1 2-3 3-5 3l-2 4c0-3 2-5 5-5l-1-2 2 2v-4h-2c1-2 0-3-2-3-1 2-2 4-4 4v3h-1c0-4 0-7 2-10v6c2-1 1-4 1-5-2-2-5-2-5 1l2-1-1 3c0 3 1 6-1 8v-4l-4 2v-1l4-7h-6l8-3zM210 113v-9l1 2v4l2-1-1 1-1 6 3 3 1-4v36h-1c-2-10-1-21 0-31l-3-3v13l-1-10 1-6-3-2 2 1zM130 105c1-1 4 0 2 1-1 1-3 1-2-1zM195 106c2 0 1 5-1 5-1-2 0-3 1-5zM198 107c1 0 0 5-2 4l2-4zM289 107h3-3zM126 109l2-3 1 2-2 3h5l-2 1-3 1-1 2 3-1-3 2c2 5 0 10 3 15 0 2-1 4 2 4l1 5c-2 2-1 6 0 9h-1c-1-4 0-8-2-11l-2 3c-2-1-6 0-6 3l-1 1 2 2v3l-2-2-1-2h-3c0 1 1 2 3 2v4h-2l2 5c-1 2-4-1-5 1l3 1-1 2-6 5 2-2-7 1 1-2-4-3 4 1v-3l-1-3h1l1 2-1-5 4 5 3 1v-2c-3-1-3-5-4-7l4 4h2l-3-4 4 2-2-1 2-2-3-3 1 4-1-1-2-3-4-1 3 3-4-1v1l-7 1 2 2h-4l2 1-1 1 2 1h-3c0-3-2-3-4-4l1 6-3-2c0 3 4 2 5 4h-4l-4-5 3 1-3-4 1-2c-2-1-5-2-5-5l3 3 2-3v3c3 1 7 2 9 4l-4-4 10 2v-3l2 2c-1-1 0-4-2-5l-8-4-5 3 2 5-4-2h3c-1-1-3-2-2-4l-3-2c3-3 8-5 8-9l-2-1c-2 2-3 5-6 6-2 0-4 1-4 3l-1-1 11-8 9-2 3-1-3 2 1 2-2-1v4c1-1 2-3 4-3l2 3-3-1c-2 1-4 4-1 5l-2-1-1-6h-4c1 3-1 6-4 6v1l-1 1c1 2 3 2 3 0 0-3 3-2 5-1l4 2h-5l8 4 3-2v4l3-4 1 4 2 1c-1-3 3-3 5-2l-1 1 1-1-4-3-2 1-7-9 3 1v1h1v1h1l1 1v-1h-1v-1h-1v-1h-1l-4-6 10 10 3 2 1 3 2-2h3c1-7-1-13-2-20l-2-5-2 1-5-3-1 2h2l-1 2-8-6h7l-1 2c1-3 5-1 7-2 2 1 3 0 5-1h2m-2 1l-1 3c3 1 4-3 1-3m0 6c-1 4 3 1 0 0m1 6c-1 2-1 2 1 3 1-2 0-2-1-3m1 6c-1 3 3 0 0 0m1 6c-1 3 3 0 0 0m-13 3c1 1 1 1 0 0m-7 4l2 1c1-1-2-3-2-1m10 2c1 1 1 1 0 0m-5 1c0 1 0 1 0 0m-21 6l1 2c3-1-1-5-1-2m16 7l-1 5c0 1 3 2 3 0h-1c-2 0 0-2 0-3h1v2h2l1 2c1-1 5-1 4-4-4 2-6-2-9-2zM274 107c1 1 3 1 3 3h-2c-1 0-3-2-1-3z"/><path d="M101 113l3 3 3 5 2-2-1 4v-1l-8 1a4621 4621 0 00-5 2c2-2 6-2 7-5l-3 1a593 593 0 002-1c2 0 3-1 3-3-2 0-3-2-3-4zM259 118c-1-3 3-3 5-4l-1 3c-1-1-3-1-4 1zM264 124c0-3-1-6 2-8 0 3-2 6-1 9 0 2-3 2-4 4 2 0 4 1 5-1 0-2 1-5 3-6v-3l3-2 1 1c0 4 2 8 1 12 2 0 4-2 5-4l2 1-1-3c2 0 3 2 4 3l1 2h-3l2 3c-2 4-3 9-1 13l2-11 3-2 2 4 1-2 2-4 1-6v8c3-2 1-6 1-8a423 423 0 001 5l1 3c5 0 3 5 3 7l2-4 1-1-1 5 1 1v4a398 398 0 010 1l-1-4-1-2-2 6 1-4-3-4 2 2v-6h-2a193 193 0 01-1 0c1 2 0 5-1 6v-2h-3v6c0 3 0 7 2 9l1 6-2-1-3-9c0-4-1-8 2-10l-4 1-2-5-1 10-3 1h-2v5c0-6-2-11-1-17l2 1v-6h-2c-2 3-1 6-3 8v-5l-3 2 2 3-4-2v-13l-3 2v11l-1 8-2 1c2-2 2-5 2-7l-2 1 1-3h-4l-1-5-5 9h6-4l-5 8-2-3h-3l2-2h-3c2-1 3 0 4 2l1-5v4h1v-3l2-1c0-3 4-6 4-9h-4l4-10-2 5v4c3 2 5-3 7-4zM128 118l2 10-2-10zM155 119l1-1 7 4c-3 0-6-1-8-3zM194 124l5-4v4l-2-3c0 2-3 5 0 5l-1 3-3-1-2 4c0-3 2-5 3-8zM153 120c4 1 5 4 8 6l2 4v-4h2l-1 5 2 3 1 2v3h-2l-2-4-2 5v-9l-4-1 1 2 2 8v13c0-6-2-11-4-16v-5l-1-4a256 256 0 00-1-1v-1c1 1 1 3 3 3 1-3-2-6-4-9zM229 121c0 2-1 5-3 7v9l4-3 4-3c-1-1-3-3-1-5 3 2 6 5 7 9l-4-5a3337 3337 0 01-1 2l-7 5c-2 4-1 8-1 12h2l-1 1c6 1 9 5 13 8-1 4 5 7 3 11v-4l-3-4-1-4c-4-3-9-5-14-6l-1-4-1-23 1 2c2 2 2-2 3-3l1-2zM85 125c-1-1 0-3 1-3 2 0 0 3-1 3zM346 128l2-4v2c-1 2-4 3-6 4l4-2zM244 125l2 3c-2 5-2 10 0 14l-3-4 1-4-3-1h4l-2-3-1 2 1-3 1 1v-5zM141 127l2 1a135 135 0 003 4l-1 1 2 1v6l-3-5-1 6 2 4a269 269 0 011 9l-2-5c0 2-3 2-4 2v-5l-4-5v4l-2-3-2-1 3-6c1-3 3-6 6-8m-1 3l1 3-3 1h3v4c3-2 4-8-1-8m-3 7l1 2 4 6c0-4-4-7-3-11l-2 3zM183 130l2-1-1 3-1-2zM323 130c1 1 1 1 0 0zM186 132c2 0 3 1 4 3l-1 2c-2 0-3 0-4-2l-4 7c-3 0-5 2-7 4a368 368 0 01-2 0l-3-2-1-5c2 0 4 1 4 3l2 3-1-9c2 2 1 5 1 8l6-2 4-5 2-5zM81 139l5-2-6 5 1-3z"/><path d="M271 143l2-4-2 4h-1l1 13-1 4-2 1 2-2v-10l-1-9 1 3h1zM73 141l1 5-1 2-1 4 2 2c-4-1-4-6-4-10h-1l-1-2c2-1 4 0 5 2v-3zM78 142l2 2 3 1c-2 1-4-1-5-3zM155 142l2 3v8l2 11-2-3-1-13-1-1 1-2c-1 0-2-1-1-3zM315 144l3-1v3c-2-1-3 0-4 1 0 2-2 4-3 5h-2c-2 0-4-1-5 2v-3c-3 1-2 5-3 7l-4 2 3-2 1-2c-1-2 1-4 1-6v-4 4h5c-3-2 1-5 2-6a1608 1608 0 003 1c0 3-4 4-2 7 3-1 4-5 5-8zM133 145l1-1c1 5 3 10 2 15-1 2 0 3 1 4l1-4-1 5-1-1-1-4-3 5c-1 2-3 2-5 2-3-1-3-3-4-5h2l-2-2c2-2 5-2 5-5-2-3-5-5-6-9l2 1c2 2 1 5 3 6l1 2c0 2-1 3-3 4l1 6 5 1 1-4h-4c3 0 5-4 4-6l-1-3 2 2v-9zM241 147l1-2-1 3 5-2 1 3h-5l-1-2-2 1 1 4c-1-2-2-3-4-1l-3-2-3-2 5 3 4-1c1-1-1-2-2-3l4 1zM78 148h3l-1 1c2 1 4 2 5-1l-1 2 2 1c-2-1-4-2-4 1h4l-2 3v-2l-3 1c1-2 0-4-1-6h-2zM196 151c5-3 10-3 15-4a525 525 0 00-1 3l-6 1-10 3-7 8-2 8-3 2c2-5 2-10 6-13l-1-2h2v-4 2l7-4zM337 148l2 3-3 6-1 7-4-4-4 2 4-4-2-1 2-1v-1l4-1 2-6m-4 7v7c1-1 2-2 1-4 2 0 2-1 1-3h-2z"/><path d="M333 152l2-2c1 2-1 3-2 2zM99 157l1-1 1 1-3 3c-2 0 0-3 1-3zM276 157v6h2l1-3-1 10c1-1 0-3-1-5-2-2-1-5-1-8zM77 157l3 4 3 3c1 2 0 4 2 6h-1l2 2-2-1-2 1h-1c2-4-1-9-5-12h2l-1-3zM93 158c2-1 4 2 4 4h-1l-3-4zM263 162l4 5-2 7c0-4 1-8-2-12zM299 169c4-1 7 1 11-1a156 156 0 007 3l1 2h-2c-1 3 0 6 1 9l1 5a143 143 0 000 1c-2-1-3 1-4 2l2 1c-3 0-4 3-5 5l-9 2-12-3-6-6-1-5 2-3c1-3 3-6 5-7l7-5h2m-9 8c-2 3-4 7-4 11 2 3 5 4 8 6l12 1 4-2c2-1 3-3 3-5l2-1 1-9-3-3c-1 3 0 5 1 7l-3 6-3-1 2-2h-3c2-2 3-2 4-1l1-7-1-3 2 1c1-1 0-3-1-3h-1l-1-1c-1-1-5 0-3 2 1 3 2 6 1 9l-4 4c-1 2-1 4-3 5 0 2 3 2 4 1l-3 2-2-3c2-1 3-3 3-5 5-3 2-10 3-15-6-1-12 2-16 6zM206 175l6-3c2 2 1 4 1 6h3l1 29v14l-4-1c1 4 0 9 2 13v20 11l-1 1v-9h-2l2-1c-2-6-1-12-1-19v-9l-1-9 4 1-1-12c-2 2-1 6-1 8l-3 1c2-2 1-5 2-8 2-2-1-5-1-9l1-3c0 3-1 7 2 10v-21-6h-2l-1 6-1-6-1-4-4 5 1-2-10 3-3-1 4-2c3 0 6-1 8-3zM105 182c2-3 6-5 9-7l17 1v1l2-1 1 2 11 10-1 3v5l4 1-1-5c2 3 2 7 3 10l2 1v5l-1-4-3 1-1-8-6-1-1 2-8 5c-5 2-11 1-16 0-1-2-4-3-7-4 1-2 0-4-1-5v-9l1 2h1v-4l-1-2-2 1-2 3v-3m11-4l2 3 2 1v7c4-1 4 4 4 7l8-1v-2l1 2c-4 2-7 1-11 2l-1-2 1-3-4-1-1-10c-2 0-3 2-3 3-1 2-2 5 1 5a398 398 0 001 0h-2c1 4 4 5 7 8-4 1-7-2-9-5 1 5 6 8 10 9l-3-2v-2c2 2 3 2 5 2l1 2 8-1-2-2 3 1-1-2h4l-1-2 2 1 2-4c0-2 1-6-2-6v4h-1l-1-3-3 3 4-6c-4-4-10-7-16-6h-5m-2 1c1 1 1 1 0 0m-2 1c1 1 1 1 0 0m-1 4c0 1-1 3 1 4 0-1 1-4-1-4m0 5c-1 2 0 2 1 3 1-1 1-2-1-3zM260 180c2-1 3-2 3-4v5c1 1 2 1 3-1v2h-2l-1 5v5c2 1 3-1 4-1l-1-7h1c1 4 0 7-2 10l-6-3-2 2-1 2c0-2 1-3 3-4h3l2-9-4-2zM226 178h4l-2 1-1-1c2 11 0 23 2 35v12l-1 4h-1v-5c1-7-1-14-1-21v-25zM165 184l-1-3c1 3 3 8-1 10l1-7h-2a478 478 0 013 0zM95 188l5-1-4 1-1 3 4 1c2 1 5 4 7 2l-1 1-7-1h-3l2-2c-2-1-3-1-4 2l1-7 1 1zM272 189c2 0 1 4-1 5l1-5zM165 197c0-2-2-5 0-6v6zM281 198v-4 4zM317 198l2-2c-1 3-4 3-6 5h-2 1c1-2 3-3 5-2v-1zM271 213c-1-2 0-4 1-5v7l2-3v6l-2-1c0 2 0 5 3 4v1c-3-1-3 1-3 3l-1 7-1-9c-3 0-4 4-5 6-2-2 1-4 2-5 1-2 4-2 5-2-1-3 1-6-1-9zM189 213c3 1 0 5-1 7-2 0-1 4-2 5-3 3-1 7-4 10l-1-4-2 1c-1-4-3-9 1-12l4-1c0 2-2 2-4 3 0 3-1 6 1 8l3-6h-2v-1l2 1c0-2 1-3 2-3 2-2 2-5 3-8zM256 213c2 1 3 2 2 4h2-2v6l-1 3 3-1-3 1v3c0-3-2-6 1-8l-2-3h-2l-3-1c2-1 5 1 7 1 0-2 0-4-2-5zM166 218l4-2-3 4-1-2z"/><path d="M185 217c3 0-1 3 0 0zM202 221h2l2 1h-2l1 5-1-4c-2 3-3 0-5-1h3v-1zM216 221c2 1 1 3 1 5l2 35c0 13-1 25 1 38 0 2-2 5 0 7l2 5 5 17-3-1-3 1 1-2h2v-1h-1l-1-6-2 1 1-4-2 2 1-5-2 1c2-3-1-5-1-8-1-9 1-19-1-28v-39c-1-1 1-3 1-5s-2-3-1-5v-8zM264 222v4h-1l1-4zM262 226l2 3c-1 2 0 4-2 5l-4 1v-1h4a326 326 0 000-8z"/><path d="M227 232l2-2c-1 2 0 3 1 4l1 2-2-1 1 14h4l3 3-1 3c3-1 6-1 8 2l3-1 2 2 6-3-1 2h3-3l-4 3-7-3c-1-2-3-1-5-1l-5-2v-1l3 1-2-4c-1-1-2 0-3 1l-1 1c0 4-1 9 1 14 1 8-1 16 1 24 2 6-1 13 2 19l1 3 1 4v1l2 7h5l-5 2-1 2-5-14-2 2-1-4c-3 3 1 6 1 9l-1-1c-1-2-1 0-2 1l-6-12v-3l3 4h1c-1-2-1-5-4-5-2-1 1-2 2-1l3 2 2-3 2 1c-2-7-1-15-1-22-2-9-1-18-1-27l-1-23m0 73l1 4-1-3-1 2 2 4v-3l2 3 1-5-2 1v-3h-2m-2 6c-1 3 3 0 0 0m6 4l1-4c-2 0-3 3-1 4m-5-1l1 4c1-2 0-3-1-4m1 4c1 0 1 0 0 0zM108 247h3l3 3v3l2-1v1c2 2 4 2 6 2l-2 2 3-1v3c-2 0-2 2-1 3l-5 3 2-2h-2l1-2-2-2v-1l2 2 1-2h1l-3-2-2-3h-1v-1h-1c-1-1-3-3-2-5h-3z"/><path d="M236 248c3-1 7 0 9 2l-9-2zM277 249v-2 2l6-2-3 3h-10l-3-1c-2 1-3 0-3-1l6 1h7zM196 256c0-3 3-3 5-4l-5 4zM177 255h2c1 2 1 4 3 5s1-3 1-5l1 4c3 0 5-2 8 0-1-5 2-1 4-1l-15 4-2-7h-2zM123 259h2l-2 1v-1zM128 264c1 1 1 1 0 0zM224 301v-5l1 5h1v-5l1 5h-3zM214 322l1-15 1 13c0 3 1 7-2 9l-1-1v-2l-1-5 2 1zM250 318l2-2-1 3h2v1l-2-1v2l1 1-2-4zM228 322c0 1 1 3 3 3l-1-3c1 3 3 5 3 8l-1-1c-1-2-1 0-2 1l-2-8m2 4l1 1v-1h-1zM164 324c3-1 8 0 11 2l3-2 4 3 4-1 3 3c-1 2-3-1-5 0l-9-1h-2l-4-3-5-1z"/></g></svg>
