<?xml version="1.0" standalone="no"?>
<!DOCTYPE svg PUBLIC "-//W3C//DTD SVG 20010904//EN"
 "http://www.w3.org/TR/2001/REC-SVG-20010904/DTD/svg10.dtd">
<svg version="1.0" xmlns="http://www.w3.org/2000/svg"
 width="1295.000000pt" height="1295.000000pt" viewBox="0 0 1295.000000 1295.000000"
 preserveAspectRatio="xMidYMid meet">
<metadata>
Created by potrace 1.14, written by Peter Selinger 2001-2017
</metadata>
<g transform="translate(0.000000,1295.000000) scale(0.100000,-0.100000)"
fill="#000000" stroke="none">
<path d="M1357 12155 c-22 -7 -50 -24 -64 -37 -15 -12 -51 -45 -81 -73 -209
-190 -528 -528 -576 -609 -22 -37 -49 -75 -61 -84 -39 -31 -66 -78 -94 -163
-26 -79 -30 -84 -57 -85 -70 -1 -100 -44 -108 -155 -14 -167 -15 -172 -50
-204 -47 -43 -64 -74 -76 -133 -5 -29 -21 -77 -34 -106 -50 -109 -66 -200 -81
-446 -11 -193 -17 -269 -31 -375 -3 -22 -14 -65 -25 -95 -21 -60 -23 -104 -9
-168 6 -24 12 -107 15 -185 3 -98 10 -167 25 -222 20 -78 56 -180 71 -200 6
-9 28 -78 35 -115 2 -8 6 -46 9 -83 6 -72 23 -122 98 -298 51 -119 85 -221
103 -309 26 -123 36 -166 53 -216 11 -33 23 -75 26 -94 3 -19 7 -42 10 -50 2
-8 6 -40 10 -70 6 -64 9 -82 36 -215 21 -104 46 -192 60 -210 15 -20 61 -210
62 -260 1 -41 -8 -68 -50 -155 -77 -158 -146 -406 -168 -605 -4 -33 -8 -73
-10 -90 -3 -16 -8 -75 -12 -130 -16 -234 -3 -317 64 -389 l26 -28 -28 -57
c-53 -108 -37 -188 50 -246 32 -21 46 -39 50 -60 3 -16 7 -41 9 -55 3 -14 18
-68 34 -120 16 -52 33 -117 36 -145 4 -31 27 -91 61 -157 57 -111 65 -149 40
-182 -21 -28 -18 -75 6 -116 12 -19 25 -37 28 -40 21 -16 52 -75 71 -135 12
-39 39 -101 60 -140 42 -79 60 -163 75 -352 9 -109 16 -188 20 -218 3 -16 7
-46 10 -65 12 -87 42 -224 70 -321 31 -109 52 -238 50 -309 -1 -30 -12 -95
-24 -143 -24 -96 -28 -177 -13 -218 12 -30 62 -114 151 -249 50 -77 61 -101
59 -130 -3 -49 9 -101 31 -127 10 -12 49 -45 87 -73 38 -29 111 -91 162 -138
69 -64 95 -94 102 -122 16 -60 46 -88 149 -140 87 -44 344 -218 397 -268 12
-11 48 -34 80 -52 33 -17 84 -49 114 -71 30 -22 66 -48 79 -57 51 -37 138
-109 186 -154 l50 -48 377 0 c345 0 380 2 420 19 60 26 135 104 149 155 15 54
19 173 7 205 -8 22 -87 97 -189 180 -19 16 -45 25 -77 27 -26 2 -58 6 -72 10
-14 3 -53 10 -87 14 -71 9 -142 52 -203 124 -19 23 -57 61 -84 86 -147 135
-257 257 -285 315 -27 57 -85 226 -86 252 0 6 19 39 43 72 38 54 46 61 70 57
15 -3 50 -8 77 -12 28 -3 84 -17 126 -30 41 -13 104 -26 140 -30 35 -3 76 -12
91 -20 15 -8 33 -14 41 -14 8 0 22 -19 33 -42 10 -24 22 -47 26 -53 130 -172
188 -207 284 -170 l45 17 155 -154 c85 -84 157 -154 158 -156 2 -1 29 23 60
55 l56 57 60 -42 c33 -23 72 -47 87 -53 46 -18 414 -107 471 -115 29 -4 69
-17 87 -30 53 -35 94 -39 153 -14 l51 22 63 -26 c58 -23 185 -55 278 -71 54
-9 191 -45 210 -55 18 -10 52 -17 117 -25 23 -3 67 -14 99 -25 69 -24 88 -25
145 -5 42 15 44 15 129 -20 l86 -34 380 1 c208 1 435 -2 504 -6 152 -11 203
-10 261 4 24 6 55 13 69 15 150 25 890 25 930 0 3 -2 26 -6 50 -10 66 -9 102
-15 130 -20 14 -3 41 -7 60 -10 19 -3 42 -8 50 -10 8 -2 38 -7 65 -10 58 -6
93 -12 155 -25 25 -5 63 -11 85 -14 22 -3 121 -18 220 -35 99 -16 200 -33 225
-36 103 -14 170 -26 305 -56 81 -18 269 -56 320 -64 24 -4 90 -12 170 -20 33
-3 78 -8 100 -10 22 -3 67 -7 100 -10 33 -3 89 -8 125 -11 68 -6 97 -8 245
-19 50 -3 113 -8 140 -10 28 -2 91 -7 140 -10 50 -3 113 -7 140 -10 28 -2 91
-7 140 -10 50 -3 128 -8 175 -10 199 -12 237 -16 295 -30 33 -7 78 -20 101
-28 32 -12 92 -14 300 -11 294 4 319 6 360 27 43 22 93 73 100 102 5 19 22 34
63 54 65 33 129 92 142 131 9 24 15 27 67 29 110 5 134 8 142 22 19 29 54 197
55 255 0 51 -4 66 -27 96 -55 73 -210 136 -352 144 -50 2 -125 7 -166 9 -142
8 -218 25 -361 78 -134 51 -444 155 -479 162 -63 12 -128 40 -341 148 -134 68
-287 147 -339 175 -52 28 -194 89 -315 136 -121 47 -245 96 -275 107 -30 12
-68 27 -85 34 -16 7 -66 26 -110 43 -44 17 -118 45 -165 64 -47 18 -87 33 -90
33 -3 0 -9 3 -15 7 -25 16 -274 81 -355 92 -50 8 -90 20 -137 44 -63 33 -74
48 -68 93 3 21 7 56 10 77 18 129 13 121 90 148 39 13 84 31 102 39 17 8 35
15 40 15 22 0 110 50 134 77 33 35 72 111 95 183 16 51 18 82 14 215 -1 34 6
63 20 90 24 46 25 125 2 192 -20 60 -47 80 -273 196 -97 50 -102 54 -133 112
-17 33 -49 99 -70 147 -42 95 -53 111 -106 150 -68 50 -318 173 -467 230 -42
15 -53 24 -53 41 0 12 16 93 34 181 42 196 39 221 -24 256 -22 12 -84 -12
-134 -54 -25 -20 -47 -36 -50 -36 -4 0 -4 48 -2 107 4 86 2 111 -11 134 -31
52 -89 58 -153 15 -34 -22 -148 -132 -175 -167 -6 -8 -22 -30 -37 -49 -14 -19
-54 -90 -88 -157 -34 -68 -75 -137 -92 -153 -55 -56 -151 -91 -280 -104 -151
-15 -177 -20 -231 -42 -85 -34 -239 -141 -342 -237 -11 -10 -64 -48 -118 -84
-110 -72 -135 -103 -199 -233 -41 -85 -45 -90 -75 -90 -28 0 -33 5 -44 38 -31
97 -84 168 -149 202 -39 20 -157 60 -335 115 -178 55 -254 83 -315 118 -170
97 -680 425 -745 479 -11 10 -43 35 -71 57 -40 32 -134 148 -134 166 0 20
-263 437 -390 619 -125 179 -416 503 -570 636 -14 12 -41 36 -60 53 -271 248
-634 452 -1070 602 -153 52 -466 136 -690 185 -274 59 -311 72 -358 125 -86
98 -210 311 -246 425 -388 1220 -456 1450 -471 1590 -4 36 -9 74 -11 85 -7 37
-18 239 -18 345 -1 326 46 506 191 733 83 131 161 214 239 254 109 56 311 201
388 280 68 70 77 95 71 216 -5 115 -8 136 -37 262 -29 126 -55 180 -137 283
-150 190 -257 249 -374 207z"/>
</g>
</svg>
